<?xml version="1.0" encoding="UTF-8"?><svg xmlns="http://www.w3.org/2000/svg" viewBox="0 0 268.43 262.43"><defs><style>.cls-1{fill:#f78dff;mix-blend-mode:multiply;}.cls-1,.cls-2,.cls-3,.cls-4{stroke-width:0px;}.cls-5{fill:none;stroke:#000;stroke-miterlimit:10;}.cls-6{isolation:isolate;}.cls-3{fill:#8af4ff;}.cls-4{fill:#fff;}</style></defs><g class="cls-6"><g id="Device"><path class="cls-3" d="m261.8,91.86c-1.47,1.86-1.37,5.44-1.54,9.16s-.28,7.73-1.16,10.92c-5.28,19.18-17.93,35.31-34.71,45.14-5.59,3.28-11.65,5.86-18.04,7.61-6.85,1.04-16.47-4.74-20.08,2.7-7.62-7.44-12.74-11.82-20.08-2.7-1.76-11.62-7.9-10.83-18.04-7.61.63-4.21-1.77-6.38-4.96-7.63-3.27-1.58-7.68-4.85-10.33-4.18-1.49-4.81-3.31-14.69-5.76-7.41-.81-11.14-.55-21.68-6.05-7.88,3.64-17.06,6.65-26.41-5.59-11.77,11.67-16.27,13.9-19.43-3.51-12.78,17.32-7.09,17.96-8.65-1.22-13.58,19.18,4.79,19.08-1.45,2.7-20.08,16.4,18.56,16.03,6.54,7.61-18.04,8.58,24.29,8.33,8.96,11.81-15.29-.89,21.65,8.75-5.8,15.29-11.81,3.83-.06,11.65-5.86,18.04-7.61,6.39-1.76,13.13-2.7,20.08-2.7s13.69.94,20.08,2.7c3.29,1.08,7.89,9.03,11.33,8.93,3.35,5.85,6.34,5.36,6.71-1.32,2.87,8.58-2.05,32.82,7.28,17.09-7.49,18.17.63,7.43,8.01-5.28-6.41,13.68-17.5,29.05-1.96,15.23-14.71,14.98-1.79,6.83,13.78.05-15.03,7.68-27.04,15.37-7.58,7.7-18.39,9.22,1.21,6.78,15.19,10.34-13.31-1.13-20.3,1.31-4.74,5.42-12.9,1.29,5.97,10.14,7.44,14.66Z"/><path class="cls-1" d="m265.09,168.16c-12.18-1.49-6.64,3.67-.69,10.25-6.7-1.04-2.44,5.57-2.01,9.83-2.13,1.9-1.96,6.31-3.24,9.32s-2.74,5.92-4.38,8.72c-3.86,5.71-29.7,12.44-11.81,15.29-21.75,1.01-31.78-.53-15.29,11.81-17.67-11.65-18.53-11.95-18.04,7.61-1.45-19.3-4.32-14.59-20.08,2.7,11.99-17.29-9.9-3.57-20.08-2.7-1.13-3.98-12.45-4.34-18.04-7.61-2.8-1.64-5.48-3.45-8.03-5.43-2.52-2.09-3.69-7.92-7.25-6.38-.6-5.7,4.1-19.38-4.93-9.82,7.14-13.88,5.49-15.07-6.88-5.46,10.6-12.64,23.14-23,2.8-14.36,20.28-10.28,9.88-8.41-10.42-3.68,19.74-6.74,32.43-8.6,10.48-12.06,21.87,2.5,3.73-2.95-13.18-8.02,16.91,2.44,28.06,5.66,10.69-6.61,16.88,9.51-3.98-7.74-7.99-13.47,5.3,1.03,6.31-2.12,6.32-6.37.26-3.97-.31-8.83,1.29-11.67,3.28-5.59,7.25-10.73,11.81-15.29,4.56-4.56,15.34-6.89,15.29-11.81,9.82-.8,24.83,4.84,18.04-7.61,6.69,5.32,11.21,8.91,14.31,9.04s4.77-3.21,5.77-11.73c1.48,8.53,3.38,12.69,6.25,12.04,3.09.6,7.29-3.61,13.83-9.34-3.45,6.58-1.71,8.95,2.33,8.74,3.89.72,10.24-1.13,15.71-1.13-.82,2.73,1.84,5.5,5.32,6.24,3.29,2.59,6.42,7.74,9.97,5.57.55,6.27-.4,13.96,6.38,7.25-3.82,10.54-5.75,16.41,5.43,8.03-8.81,12.42-10.57,16.64,5.59,11.77-14.55,9.17-13.4,11.31,3.51,12.78-16.05,3.29-10.97,6.65,1.22,13.58Z"/><g id="ExqGb0.tif"><path class="cls-5" d="m245.24,189.44c20.59-36.09,21.37-98.65-25.19-141.18C171.97,4.34,97.59,7.72,53.61,55.76c-41.72,45.57-36.07,106.41-14.65,139.18.13-.06.3-.08.37-.18.34-.45.7-.9.97-1.39,1.76-3.23,4.89-4.77,8.1-5.7,5.83-1.68,11.65-3.28,16.94-6.35.9-.52,1.92-.88,2.93-1.16,3.51-.98,7.04-1.92,10.57-2.83,5.46-1.4,9.95-4.7,14.61-7.6,3.81-2.37,9.12-2.49,11.36-7.35.16-.35,1.13-.5,1.68-.43.21.03.45.96.42,1.46-.09,1.4-.56,2.82-.46,4.19.34,4.76,1.95,9.14,4.9,12.88,2.96,3.76,6.16,7.33,9.32,10.93,1.9,2.16,3.88,4.25,5.92,6.29,2.79,2.79,5.79,5.39,8.48,8.27,2.41,2.58,4.53,5.42,6.77,8.16,2.13,2.61,3.83,2.73,6.06.18,1.25-1.42,2.18-3.12,3.38-4.59,3.43-4.2,6.93-8.35,10.4-12.53.72-.87,1.61-1.66,2.09-2.65.27-.56.02-1.98-.3-2.09-1.34-.45-2.87-.92-4.21-.7-2.31.38-3.84-.37-4.15-2.72-.12-.91-.07-1.84-.04-2.76.1-2.99-1.23-4.42-4.3-4.39-1.97.02-3.97.47-5.91.28-4.92-.48-9.83-1.14-14.71-1.89-1.37-.21-2.64-1-3.96-1.53.05-.21.1-.43.16-.64.65,0,1.31-.05,1.95,0,1.88.18,3.76.4,5.64.61,4.69.52,8.86-.48,12.07-4.2,2.44-2.83,3.9-5.79.98-8.79-.94-.97-1.76-2.39-1.94-3.69-.26-1.98-1.08-2.7-2.98-2.74-.57-.01-1.46-.58-1.58-1.05-.11-.45.51-1.18.94-1.66.61-.68,1.35-1.25,2.38-2.18-1.24-.15-1.9-.22-2.69-.32.7-2.5-1.47-2.05-2.49-2.46,2.37-.52,4.79-1.05,7.67-1.67.63-.78.58-3.16,3.1-2.44v-2.45c-1.27-.4-2.17-.74-3.1-.94-.61-.13-1.28-.1-1.91-.05-2.12.14-4.24.32-6.35.49-.07-.32-.15-.65-.22-.97,2.09-1.03,4.18-2.06,6.27-3.09.02-.3.05-.6.07-.9-2.17-.96-4.34-1.92-6.77-2.99.57-.77,1.09-1.48,1.62-2.18,1.46-1.92,2.87-3.61,1.46-6.44-1.03-2.07-1.24-4.62-1.51-6.99-.57-5.05-.87-10.14-1.41-15.2-.37-3.44,2.62-8.83,5.83-9.92,3.81-1.29,7.68-2.36,11.47-3.7,1.28-.45,2.48-1.29,3.5-2.21.39-.35.48-1.65.14-2.07-1.92-2.4-3.82-4.89-6.1-6.93-2.72-2.45-3.12-5.92-4.23-8.95-.97-2.63-2.03-4.23-5.01-3.85-1.51.19-3.04.17-4.57.28-.33.02-.66.13-.96.26-1.46.61-2.92,1.24-4.38,1.86-.63.27-1.59.31-1.87.78-1.99,3.24-5.06,5.91-5.18,10.14-.05,1.67-2.45,3.74-4.36,3.99,1.85-3.14,3.96-6.14,3.86-9.99-2.78.03-4.68,1.31-4.88,3.47-.24,2.58-.26,5.18-.38,7.89-2.39,1.73-4.13,2.01-5.54.67-.37-.35-.52-.93-.77-1.4.47-.21.95-.39,1.4-.64.7-.39,1.95-.82,1.96-1.25.02-1.04-.55-2.09-1.02-3.57-1.14,1.09-1.98,1.61-2.41,2.36-1.66,2.89-4.58,4.07-7.25,5.58-2.69,1.52-5.22,1.09-7.82-.47-1.67-1-3.56-1.75-5.45-2.22-1.95-.48-3.17.49-3.4,2.49-.23,2.03-.26,4.09-.26,6.13-.02,7.64.04,15.27,0,22.91-.01,2-1.97,3.17-3.57,2.07-1.52-1.05-2.81-2.28-3.45-4.34-.61-1.94-1.96-3.93-3.54-5.21-1.95-1.58-3.04-3.82-1.94-6.1.23-.48.61-1.07.51-1.52-.58-2.56-1.28-5.09-1.99-7.78-.59.45-.95.73-1.52,1.17-.61-3.68-1.65-7.15-1.66-10.62-.03-9.16-.14-18.42,5.15-26.59.46-.7.72-1.54,1.06-2.31,1.88-4.16,4.08-8.03,8.1-10.62,1.25-.81,2.24-2.15,3.11-3.41,5.44-7.93,13.17-12.1,22.43-13.78,3.68-.66,7.48-.87,11.05-1.89,6.23-1.77,12.24-.52,18.17.95,1.72.43,3.15.41,4.81.33,2.13-.1,4.32.29,6.41.75.73.16,1.77,1.18,1.78,1.82.05,1.95,1.24,2.68,2.68,3.43,1.81.95,3.55,2.04,5.36,3,.6.32,1.37.67,1.99.56,3.87-.67,5.82,2.02,7.81,4.48.67.82.66,2.16,1.25,3.09,1.86,2.91,3.85,5.74,5.81,8.58.19.28.49.52.78.7,5.81,3.61,7.59,9.72,8.36,15.71.87,6.68.39,13.55.2,20.33-.05,1.68-1.27,3.31-1.87,4.99-.27.75-.7,1.82-.39,2.35,1.88,3.18.78,6.5.66,9.76-.02.46-.38,1.23-.69,1.29-2.06.39-1.59,1.79-1.02,2.84,1.44,2.61,1.19,5.09.12,7.71-.37.91-.46,2.05-.32,3.04.25,1.83-.67,3.02-2.19,2.93-2.32-.14-3.48,1.34-4.81,2.6-1.49,1.42-1.29,4.89.3,5.51,1.58.62,1.6,1.41,1.01,2.77-.71,1.63-1.54,3.34-1.7,5.07-.17,1.81-.79,3.14-1.83,4.57-2.94,4.03-5.71,8.2-8.5,12.34-.87,1.3-.15,2.15,1.14,2.16,1.5,0,3.06-.23,4.5-.66,1.93-.58,3.76-1.99,5.81-.55,1.67,1.17,3.27,2.45,4.83,3.76,1.93,1.62,3.74,3.38,5.7,4.95,1.15.92,2.4,1.81,3.75,2.36,3.06,1.24,6.15,2.49,9.33,3.33,5.92,1.55,11.88,2.93,17.88,4.14,5.11,1.03,10.37,1.4,15.42,2.65,3.87.96,7.42,2.92,8.19,7.58.09.55.55,1.04.91,1.69Zm-86.36-31.23c1.16-1.7,2.41-3.33,3.44-5.09,2.61-4.47,3.15-9.44,3.39-14.49.08-1.59.4-3.18.76-4.74.56-2.38,1.65-4.7,1.81-7.09.29-4.24.08-8.52.03-12.78,0-.72-.02-1.76-.45-2.06-.43-.31-1.41.02-2.1.23-1.93.6-3.82,1.33-5.75,1.94-1.02.32-1.68.04-2.01-1.17-.64-2.32-1.29-2.67-3.52-1.72-1.53.65-2.8,1.9-4.33,2.53-3.33,1.37-4.23,5.17-1.76,7.82,1.54,1.65,3.17,3.27,4.34,5.16.64,1.04.76,2.7.49,3.94-.27,1.26.02,1.65.99,2.31,1.78,1.2,3.53,2.53,4.99,4.09,1.52,1.62.96,2.69-.75,4.11-1.14.94-1.83,2.5-2.51,3.88-.41.85-.47,1.89-.61,2.85-.27,1.91-.49,3.84-.73,5.76.18,0,.37.02.55.03.74-.85,1.49-1.69,2.48-2.83q.17,6.08,1.23,7.32Zm-10.52-48.61c1.28-.11,2.67-.23,4.06-.35-.35-1-.69-2.01-1.05-3.01-.09-.26,10.69-4.58,10.49-4.74-.53-.44-9.64,1.53-10.21,1.13-.39.75-3.33,3.11-3.49,3.9-.16.81.09,1.7.19,3.07Zm-42.09-24.95c-.05-.25-.1-.5-.15-.76-1.89-.89-3.92-.41-5.13,1.84,1.76-.36,3.52-.72,5.28-1.08Zm42.59,81.28c.31.14.62.28.93.42.59-1.31,1.18-2.62,1.77-3.93-.25-.12-.5-.24-.74-.36-.92,1.15-2.17,2.12-1.96,3.86Z"/><path class="cls-5" d="m245.24,189.44c-.36-.65-.82-1.14-.91-1.69-.77-4.66-4.32-6.62-8.19-7.58-5.05-1.25-10.3-1.62-15.42-2.65-6-1.21-11.96-2.59-17.88-4.14-3.18-.83-6.27-2.08-9.33-3.33-1.35-.55-2.6-1.44-3.75-2.36-1.96-1.58-3.77-3.34-5.7-4.95-1.56-1.31-3.16-2.59-4.83-3.76-2.05-1.44-3.88-.03-5.81.55-1.44.43-3,.67-4.5.66-1.29,0-2.01-.86-1.14-2.16,2.79-4.14,5.55-8.31,8.5-12.34,1.04-1.43,1.67-2.76,1.83-4.57.16-1.73.98-3.43,1.7-5.07.59-1.36.57-2.15-1.01-2.77-1.59-.62-1.79-4.09-.3-5.51,1.33-1.26,2.49-2.74,4.81-2.6,1.52.09,2.44-1.1,2.19-2.93-.13-.99-.05-2.13.32-3.04,1.07-2.62,1.33-5.11-.12-7.71-.58-1.05-1.04-2.45,1.02-2.84.31-.06.67-.83.69-1.29.12-3.26,1.22-6.58-.66-9.76-.31-.53.12-1.59.39-2.35.59-1.68,1.82-3.32,1.87-4.99.19-6.78.66-13.65-.2-20.33-.78-5.98-2.55-12.09-8.36-15.71-.29-.18-.59-.42-.78-.7-1.96-2.85-3.95-5.67-5.81-8.58-.59-.92-.58-2.26-1.25-3.09-1.99-2.46-3.94-5.14-7.81-4.48-.62.11-1.39-.25-1.99-.56-1.81-.96-3.55-2.05-5.36-3-1.43-.75-2.63-1.48-2.68-3.43-.02-.65-1.06-1.66-1.78-1.82-2.1-.47-4.29-.85-6.41-.75-1.66.08-3.09.1-4.81-.33-5.94-1.47-11.94-2.71-18.17-.95-3.57,1.01-7.37,1.22-11.05,1.89-9.26,1.67-16.99,5.84-22.43,13.78-.87,1.26-1.86,2.61-3.11,3.41-4.02,2.58-6.22,6.46-8.1,10.62-.35.77-.61,1.6-1.06,2.31-5.29,8.17-5.18,17.43-5.15,26.59.01,3.47,1.05,6.93,1.66,10.62.57-.44.93-.72,1.52-1.17.7,2.7,1.41,5.23,1.99,7.78.1.45-.27,1.04-.51,1.52-1.1,2.28-.01,4.52,1.94,6.1,1.58,1.28,2.93,3.27,3.54,5.21.64,2.05,1.93,3.29,3.45,4.34,1.6,1.1,3.55-.07,3.57-2.07.05-7.64-.01-15.27,0-22.91,0-2.05.03-4.1.26-6.13.23-2,1.45-2.97,3.4-2.49,1.89.47,3.78,1.22,5.45,2.22,2.6,1.56,5.13,1.99,7.82.47,2.67-1.51,5.6-2.69,7.25-5.58.43-.75,1.27-1.27,2.41-2.36.47,1.48,1.03,2.53,1.02,3.57,0,.43-1.26.85-1.96,1.25-.45.25-.93.43-1.4.64.25.47.41,1.05.77,1.4,1.4,1.33,3.15,1.06,5.54-.67.12-2.72.14-5.31.38-7.89.2-2.16,2.09-3.44,4.88-3.47.1,3.85-2.01,6.85-3.86,9.99,1.91-.25,4.31-2.32,4.36-3.99.11-4.23,3.19-6.91,5.18-10.14.29-.47,1.24-.51,1.87-.78,1.46-.61,2.92-1.25,4.38-1.86.3-.13.64-.24.96-.26,1.52-.1,3.06-.09,4.57-.28,2.97-.37,4.04,1.22,5.01,3.85,1.12,3.03,1.51,6.5,4.23,8.95,2.28,2.05,4.18,4.53,6.1,6.93.34.42.25,1.73-.14,2.07-1.02.91-2.22,1.76-3.5,2.21-3.79,1.33-7.67,2.41-11.47,3.7-3.21,1.09-6.2,6.48-5.83,9.92.55,5.06.84,10.14,1.41,15.2.27,2.37.48,4.92,1.51,6.99,1.41,2.83,0,4.52-1.46,6.44-.53.7-1.05,1.41-1.62,2.18,2.43,1.07,4.6,2.03,6.77,2.99-.02.3-.05.6-.07.9-2.09,1.03-4.18,2.06-6.27,3.09.07.32.15.65.22.97,2.12-.17,4.23-.35,6.35-.49.63-.04,1.3-.08,1.91.05.93.2,1.83.55,3.1.94v2.45c-2.52-.72-2.47,1.66-3.1,2.44-5.53,1.88-21.49,1.73-21.36,1.06,1.02.41,16.88.57,16.18,3.07.79.09,1.45.17,2.69.32-1.03.93-1.77,1.5-2.38,2.18-.43.48-1.05,1.21-.94,1.66.12.47,1.01,1.04,1.58,1.05,1.89.04,2.71.76,2.98,2.74.17,1.31.99,2.73,1.94,3.69,2.92,3,1.46,5.96-.98,8.79-3.21,3.72-7.38,4.72-12.07,4.2-1.88-.21-3.76-.43-5.64-.61-.64-.06-1.3,0-1.95,0-.05.21-.1.43-.16.64,1.32.53,2.59,1.32,3.96,1.53,4.89.75,9.79,1.41,14.71,1.89,1.94.19,3.94-.26,5.91-.28,3.07-.04,4.4,1.39,4.3,4.39-.03.92-.08,1.85.04,2.76.31,2.35,1.84,3.1,4.15,2.72,1.35-.22,2.87.25,4.21.7.33.11.57,1.54.3,2.09-.47.99-1.37,1.78-2.09,2.65-3.47,4.17-6.97,8.32-10.4,12.53-1.2,1.47-2.13,3.17-3.38,4.59-2.24,2.54-3.93,2.42-6.06-.18-2.24-2.74-4.36-5.58-6.77-8.16-2.69-2.88-5.69-5.48-8.48-8.27-2.04-2.03-4.02-4.13-5.92-6.29-3.16-3.59-6.36-7.17-9.32-10.93-2.95-3.74-4.56-8.12-4.9-12.88-.1-1.38.37-2.79.46-4.19.03-.5-.21-1.43-.42-1.46-.55-.07-1.52.08-1.68.43-2.24,4.86-7.54,4.98-11.36,7.35-4.66,2.9-9.15,6.2-14.61,7.6-3.53.91-7.06,1.85-10.57,2.83-1.01.28-2.03.64-2.93,1.16-5.3,3.07-11.11,4.67-16.94,6.35-3.2.92-6.34,2.46-8.1,5.7-.27.49-.63.94-.97,1.39-.07.1-.24.12-.37.18-21.42-32.77-27.07-93.6,14.65-139.17C97.59,7.72,171.97,4.34,220.05,48.25c46.57,42.53,45.78,105.1,25.19,141.18ZM113.17,103.93c-.75.38-1.83.89-2.86,1.47-1.72.96-3.46,1.89-5.08,3.01-.53.37-.77,1.23-1.01,1.92-.06.17.48.78.59.74.7-.24,1.42-.52,2.01-.95.36-.27.49-.83.74-1.26.96-1.63,2.08-1.68,3.23-.13.25.34.44.83.77.99,1.12.54,2.27,1.17,3.47,1.36,1.38.22,2.13-.67,2.38-2.1.11-.62.76-1.15,1.27-1.86,1.31,1.72.05,2.39-.61,3.31-.43.6-.58,1.42-.85,2.14.93.07,2.05.5,2.75.14,3.3-1.69,4.38-6.34,2.44-9.59-.27-.44-.4-.97-.62-1.53.43-.1.62-.14.82-.19.82-.2,1.64-.4,2.45-.6-.59-.69-1.05-1.59-1.79-2.03-4.46-2.69-9.29-2.5-14.15-1.49-.75.16-1.37.91-2.05,1.39.77.41,1.5.92,2.32,1.2,1.17.41,2.4.65,3.19.86.24,1.32.39,2.19.58,3.22Zm8.71,23.88c-.96.12-1.24.07-1.34.18-3.01,3.32-6.18,6.52-8.9,10.07-.8,1.05-.44,3.09-.33,4.66.04.52.97.97,1.49,1.45.33-.57.95-1.14.95-1.71-.02-2.44,1.19-4.24,2.54-6.11,1.87-2.6,3.53-5.36,5.59-8.54Zm3.06,23.2c.06-.2.11-.4.17-.6-.62-.51-1.32-.95-1.84-1.54-.6-.68-1.09-1.47-1.54-2.26-1.56-2.75-2.9-3.16-5.91-2.02-1.43.54-1.64,1.26-.97,2.45,1.59-1.9,2.93-.51,4.15.32,1.45.98,2.7,2.25,4.12,3.27.46.33,1.19.27,1.8.39Zm-.44,25.99c-2.69-2.47-5.39-4.94-8.08-7.4l-.39.43c2.69,2.5,4.41,6.06,8.47,6.97Z"/><path class="cls-5" d="m158.88,158.2q-1.06-1.23-1.23-7.32c-1,1.13-1.74,1.98-2.48,2.83-.18,0-.37-.02-.55-.03.24-1.92.45-3.84.73-5.76.14-.97.19-2.01.61-2.85.68-1.39,1.37-2.95,2.51-3.88,1.72-1.41,2.27-2.49.75-4.11-1.46-1.56-3.21-2.89-4.99-4.09-.97-.66-1.26-1.06-.99-2.31.27-1.25.15-2.9-.49-3.94-1.17-1.89-2.81-3.52-4.34-5.16-2.47-2.65-1.57-6.44,1.76-7.82,1.53-.63,2.81-1.87,4.33-2.53,2.22-.95,2.88-.6,3.52,1.72.33,1.22,1,1.49,2.01,1.17,1.93-.61,3.82-1.33,5.75-1.94.69-.22,1.67-.54,2.1-.23.43.3.44,1.34.45,2.06.05,4.26.26,8.54-.03,12.78-.17,2.39-1.25,4.71-1.81,7.09-.37,1.56-.69,3.15-.76,4.74-.24,5.05-.79,10.02-3.39,14.49-1.03,1.76-2.28,3.4-3.44,5.09Z"/><path class="cls-5" d="m106.28,84.64c-1.76.36-3.52.72-5.28,1.08,1.2-2.24,3.24-2.73,5.13-1.84.05.25.1.5.15.76Z"/><path class="cls-5" d="m148.87,165.91c-.22-1.74,1.03-2.72,1.96-3.86.25.12.5.24.74.36-.59,1.31-1.18,2.62-1.77,3.93-.31-.14-.62-.28-.93-.42Z"/><path class="cls-5" d="m113.17,103.93c-.18-1.03-.34-1.91-.58-3.22-.79-.21-2.02-.45-3.19-.86-.81-.28-1.55-.79-2.32-1.2.68-.48,1.3-1.23,2.05-1.39,4.86-1.01,9.69-1.2,14.15,1.49.74.44,1.2,1.34,1.79,2.03-.82.2-1.64.4-2.45.6-.2.05-.39.09-.82.19.22.56.36,1.09.62,1.53,1.95,3.25.86,7.9-2.44,9.59-.71.36-1.82-.07-2.75-.14.27-.72.42-1.53.85-2.14.66-.92,1.92-1.59.61-3.31-.51.72-1.16,1.24-1.27,1.86-.25,1.43-1,2.32-2.38,2.1-1.2-.19-2.35-.82-3.47-1.36-.34-.16-.52-.65-.77-.99-1.15-1.54-2.27-1.5-3.23.13-.25.42-.38.99-.74,1.26-.59.43-1.31.72-2.01.95-.11.04-.65-.57-.59-.74.24-.68.48-1.55,1.01-1.92,1.62-1.11,3.36-2.04,5.08-3.01,1.03-.58,2.1-1.08,2.86-1.47Z"/><path class="cls-5" d="m121.88,127.81c-2.07,3.18-3.72,5.94-5.59,8.54-1.34,1.87-2.56,3.68-2.54,6.11,0,.57-.61,1.14-.95,1.71-.52-.48-1.46-.93-1.49-1.45-.11-1.57-.47-3.61.33-4.66,2.72-3.55,5.89-6.75,8.9-10.07.1-.11.38-.06,1.34-.18Z"/><path class="cls-5" d="m124.94,151.01c-.61-.12-1.34-.06-1.8-.39-1.42-1.02-2.68-2.29-4.12-3.27-1.22-.82-2.57-2.21-4.15-.32-.67-1.19-.46-1.91.97-2.45,3-1.14,4.35-.72,5.91,2.02.45.79.94,1.58,1.54,2.26.52.59,1.22,1.03,1.84,1.54-.06.2-.11.4-.17.6Z"/><path class="cls-5" d="m124.5,177c-4.06-.91-5.78-4.47-8.47-6.97l.39-.43c2.69,2.47,5.39,4.94,8.08,7.4Z"/></g><path class="cls-5" d="m106.28,84.64c-1.76.36-3.52.72-5.28,1.08,1.2-2.24,3.24-2.73,5.13-1.84.05.25.1.5.15.76Z"/><path class="cls-4" d="m148.87,165.91c-.22-1.74,1.03-2.72,1.96-3.86.25.12.5.24.74.36-.59,1.31-1.18,2.62-1.77,3.93-.31-.14-.62-.28-.93-.42Z"/><path class="cls-2" d="m113.17,103.93c-.18-1.03-.34-1.91-.58-3.22-.79-.21-2.02-.45-3.19-.86-.81-.28-1.55-.79-2.32-1.2.68-.48,1.3-1.23,2.05-1.39,4.86-1.01,9.69-1.2,14.15,1.49.74.44,1.2,1.34,1.79,2.03-.82.2-1.64.4-2.45.6-.2.05-.39.09-.82.19.22.56.36,1.09.62,1.53,1.95,3.25.86,7.9-2.44,9.59-.71.36-1.82-.07-2.75-.14.27-.72.42-1.53.85-2.14.66-.92,1.92-1.59.61-3.31-.51.72-1.16,1.24-1.27,1.86-.25,1.43-1,2.32-2.38,2.1-1.2-.19-2.35-.82-3.47-1.36-.34-.16-.52-.65-.77-.99-1.15-1.54-2.27-1.5-3.23.13-.25.42-.38.99-.74,1.26-.59.43-1.31.72-2.01.95-.11.04-.65-.57-.59-.74.24-.68.48-1.55,1.01-1.92,1.62-1.11,3.36-2.04,5.08-3.01,1.03-.58,2.1-1.08,2.86-1.47Z"/><path class="cls-2" d="m121.88,127.81c-2.07,3.18-3.72,5.94-5.59,8.54-1.34,1.87-2.56,3.68-2.54,6.11,0,.57-.61,1.14-.95,1.71-.52-.48-1.46-.93-1.49-1.45-.11-1.57-.47-3.61.33-4.66,2.72-3.55,5.89-6.75,8.9-10.07.1-.11.38-.06,1.34-.18Z"/><path class="cls-2" d="m124.94,151.01c-.61-.12-1.34-.06-1.8-.39-1.42-1.02-2.68-2.29-4.12-3.27-1.22-.82-2.57-2.21-4.15-.32-.67-1.19-.46-1.91.97-2.45,3-1.14,20.42-3.75,21.98-1.01.45.79-18.96.46-18.36,1.14.52.59,5.05,5.19,5.67,5.7-.06.2-.11.4-.17.6Z"/><path class="cls-2" d="m124.5,177c-4.06-.91-5.78-4.47-8.47-6.97l.39-.43c2.69,2.47,5.39,4.94,8.08,7.4Z"/></g></g></svg>